HIERARCHY
ROOT hip
{
  OFFSET 0 0 0
  CHANNELS 6 Xposition Yposition Zposition Zrotation Yrotation Xrotation
  JOINT abdomen
  {
    OFFSET 0 20.6881 -0.73152
    CHANNELS 3 Zrotation Xrotation Yrotation
    JOINT chest
    {
      OFFSET 0 11.7043 -0.48768
      CHANNELS 3 Zrotation Xrotation Yrotation
      JOINT neck
      {
        OFFSET 0 22.1894 -2.19456
        CHANNELS 3 Zrotation Xrotation Yrotation
        JOINT head
        {
          OFFSET -0.24384 7.07133 1.2192
          CHANNELS 3 Zrotation Xrotation Yrotation
          JOINT leftEye
          {
            OFFSET 4.14528 8.04674 8.04672
            CHANNELS 3 Zrotation Xrotation Yrotation
            End Site
            {
              OFFSET 1 0 0
            }
          }
          JOINT rightEye
          {
            OFFSET -3.6576 8.04674 8.04672
            CHANNELS 3 Zrotation Xrotation Yrotation
            End Site
            {
              OFFSET 1 0 0
            }
          }
        }
      }
      JOINT rCollar
      {
        OFFSET -2.68224 19.2634 -4.8768
        CHANNELS 3 Zrotation Xrotation Yrotation
        JOINT rShldr
        {
          OFFSET -8.77824 -1.95073 1.46304
          CHANNELS 3 Zrotation Xrotation Yrotation
          JOINT rForeArm
          {
            OFFSET -28.1742 -1.7115 0.48768
            CHANNELS 3 Zrotation Xrotation Yrotation
            JOINT rHand
            {
              OFFSET -22.5879 0.773209 7.07136
              CHANNELS 3 Zrotation Xrotation Yrotation
              JOINT rThumb1
              {
                OFFSET -1.2192 -0.487915 3.41376
                CHANNELS 3 Zrotation Xrotation Yrotation
                JOINT rThumb2
                {
                  OFFSET -3.37035 -0.52449 3.41376
                  CHANNELS 3 Zrotation Xrotation Yrotation
                  End Site
                  {
                    OFFSET -1.78271 -1.18214 1.43049
                  }
                }
              }
              JOINT rIndex1
              {
                OFFSET -7.75947 0.938293 5.60832
                CHANNELS 3 Zrotation Xrotation Yrotation
                JOINT rIndex2
                {
                  OFFSET -2.54057 -0.884171 1.56538
                  CHANNELS 3 Zrotation Xrotation Yrotation
                  End Site
                  {
                    OFFSET -1.62519 -0.234802 1.16502
                  }
                }
              }
              JOINT rMid1
              {
                OFFSET -8.24714 1.18213 3.41376
                CHANNELS 3 Zrotation Xrotation Yrotation
                JOINT rMid2
                {
                  OFFSET -3.10165 -0.590103 1.0647
                  CHANNELS 3 Zrotation Xrotation Yrotation
                  End Site
                  {
                    OFFSET -2.48547 -0.328903 0.83742
                  }
                }
              }
              JOINT rRing1
              {
                OFFSET -8.82822 0.546677 1.51678
                CHANNELS 3 Zrotation Xrotation Yrotation
                JOINT rRing2
                {
                  OFFSET -2.60934 -0.819778 -0.0198488
                  CHANNELS 3 Zrotation Xrotation Yrotation
                  End Site
                  {
                    OFFSET -2.33842 -0.294052 0.168128
                  }
                }
              }
              JOINT rPinky1
              {
                OFFSET -8.27202 -0.0477905 -0.4584
                CHANNELS 3 Zrotation Xrotation Yrotation
                JOINT rPinky2
                {
                  OFFSET -1.82734 -0.647385 -0.700984
                  CHANNELS 3 Zrotation Xrotation Yrotation
                  End Site
                  {
                    OFFSET -1.69225 -0.51767 -0.607171
                  }
                }
              }
            }
          }
        }
      }
      JOINT lCollar
      {
        OFFSET 2.68224 19.2634 -4.8768
        CHANNELS 3 Zrotation Xrotation Yrotation
        JOINT lShldr
        {
          OFFSET 8.77824 -1.95073 1.46304
          CHANNELS 3 Zrotation Xrotation Yrotation
          JOINT lForeArm
          {
            OFFSET 28.1742 -1.7115 0.48768
            CHANNELS 3 Zrotation Xrotation Yrotation
            JOINT lHand
            {
              OFFSET 22.5879 0.773209 7.07136
              CHANNELS 3 Zrotation Xrotation Yrotation
              JOINT lThumb1
              {
                OFFSET 1.2192 -0.487915 3.41376
                CHANNELS 3 Zrotation Xrotation Yrotation
                JOINT lThumb2
                {
                  OFFSET 3.37035 -0.52449 3.41376
                  CHANNELS 3 Zrotation Xrotation Yrotation
                  End Site
                  {
                    OFFSET 1.78271 -1.18214 1.43049
                  }
                }
              }
              JOINT lIndex1
              {
                OFFSET 7.75947 0.938293 5.60832
                CHANNELS 3 Zrotation Xrotation Yrotation
                JOINT lIndex2
                {
                  OFFSET 2.54057 -0.884171 1.56538
                  CHANNELS 3 Zrotation Xrotation Yrotation
                  End Site
                  {
                    OFFSET 1.62519 -0.234802 1.16502
                  }
                }
              }
              JOINT lMid1
              {
                OFFSET 8.24714 1.18213 3.41376
                CHANNELS 3 Zrotation Xrotation Yrotation
                JOINT lMid2
                {
                  OFFSET 3.10165 -0.590103 1.0647
                  CHANNELS 3 Zrotation Xrotation Yrotation
                  End Site
                  {
                    OFFSET 2.48547 -0.328903 0.83742
                  }
                }
              }
              JOINT lRing1
              {
                OFFSET 8.82822 0.546677 1.51678
                CHANNELS 3 Zrotation Xrotation Yrotation
                JOINT lRing2
                {
                  OFFSET 2.60934 -0.819778 -0.0198488
                  CHANNELS 3 Zrotation Xrotation Yrotation
                  End Site
                  {
                    OFFSET 2.33842 -0.294052 0.168128
                  }
                }
              }
              JOINT lPinky1
              {
                OFFSET 8.27202 -0.0477905 -0.4584
                CHANNELS 3 Zrotation Xrotation Yrotation
                JOINT lPinky2
                {
                  OFFSET 1.82734 -0.647385 -0.700984
                  CHANNELS 3 Zrotation Xrotation Yrotation
                  End Site
                  {
                    OFFSET 1.69225 -0.51767 -0.607171
                  }
                }
              }
            }
          }
        }
      }
    }
  }
  JOINT rButtock
  {
    OFFSET -8.77824 4.35084 1.2192
    CHANNELS 3 Zrotation Xrotation Yrotation
    JOINT rThigh
    {
      OFFSET 0 -1.70687 -2.19456
      CHANNELS 3 Zrotation Xrotation Yrotation
      JOINT rShin
      {
        OFFSET 0 -36.8199 0.73152
        CHANNELS 3 Zrotation Xrotation Yrotation
        JOINT rFoot
        {
          OFFSET 0.73152 -45.1104 -5.12064
          CHANNELS 3 Zrotation Xrotation Yrotation
          End Site
          {
            OFFSET -1.1221 -3.69964 12.103
          }
        }
      }
    }
  }
  JOINT lButtock
  {
    OFFSET 8.77824 4.35084 1.2192
    CHANNELS 3 Zrotation Xrotation Yrotation
    JOINT lThigh
    {
      OFFSET 0 -1.70687 -2.19456
      CHANNELS 3 Zrotation Xrotation Yrotation
      JOINT lShin
      {
        OFFSET 0 -36.8199 0.73152
        CHANNELS 3 Zrotation Xrotation Yrotation
        JOINT lFoot
        {
          OFFSET -0.73152 -45.1104 -5.12064
          CHANNELS 3 Zrotation Xrotation Yrotation
          End Site
          {
            OFFSET 1.1221 -3.69964 12.103
          }
        }
      }
    }
  }
}
MOTION
Frames:	8
Frame Time:	0.00833333
-24.425879 0.31776 -6.83523 -44.497566 79.71702 -31.245207 -1.296162 20.294512 -0.944081 9.124802 -11.1329 0.492178 -9.304148 23.738247 -18.2359 26.82043 -36.07737 -28.397593 -0.11272 0.222526 -0.155724 -0.18281 -0.096717 0.331484 -0.189113 0.080178 -0.076803 53.646378 28.770626 -2.934826 -27.480232 -42.961746 89.00675 -0.547398 -2.746663 -0.194149 0.236726 -0.013087 -0.137093 -0.302576 0.269131 -0.25448 -0.507397 -0.169119 -0.230656 7.910722 5.450538 0.499699 0.03957 -0.206806 -0.101703 2.988453 0.832466 0.246712 0.462099 -0.322761 -0.262152 10.620783 0.757434 0.107535 -0.016402 0.216738 0.00454 2.367307 -0.590518 0.026924 -0.080856 0.060702 -0.048161 -59.896107 55.344578 -14.955574 28.07816 -40.75625 -86.84437 1.764313 -32.615932 6.313808 0.187253 -0.198757 -0.017634 -0.114167 0.102954 -0.43343 -0.509884 -0.253717 -0.008766 -7.780026 5.511532 -0.367967 -0.373399 0.278564 -0.308543 -2.696844 0.990527 -0.017777 0.317316 0.054691 -0.003902 -10.657817 0.464983 -0.046127 -0.236036 -0.153508 -0.189345 -2.261884 -0.946639 0.480992 -0.094577 0.038161 0.030718 -53.531467 -53.99961 -51.511612 -1.893954 68.68665 3.81414 3.67091 -5.538516 10.372147 -0.097987 -0.143955 0.1135 57.3927 -47.62122 47.827488 4.977356 82.71799 -8.341116 6.26479 -19.489588 18.052816
-24.332556 0.313239 -6.890942 -38.00249 78.325966 -23.975866 -1.54826 19.923523 -0.88958 8.900386 -10.985282 0.400682 -9.14166 23.39685 -17.820938 26.41381 -35.609127 -28.377165 -0.158202 0.142254 -0.106675 -0.195412 0.13805 0.215716 -0.22776 -0.09956 0.05081 53.129177 28.31797 -2.98466 -27.067171 -42.57608 88.63979 -0.304816 -3.129346 -0.477442 0.237709 0.080513 0.010437 -0.256281 0.397158 -0.189689 -0.507337 -0.225616 -0.355654 7.901011 5.577394 0.403576 0.031657 -0.225615 -0.028562 3.030546 0.840355 0.202424 0.455101 -0.179343 -0.337817 10.62731 0.79429 0.005103 -0.055184 0.181675 -0.003116 2.420711 -0.624915 -0.026759 -0.01295 0.067542 0.017667 -59.141975 55.87361 -15.944583 28.036512 -41.229393 -86.842545 1.950092 -33.33569 6.275429 0.136028 -0.24095 -0.095566 -0.14356 0.167909 -0.34247 -0.18565 -0.248675 -0.07321 -7.762026 5.545165 -0.451235 -0.489932 0.250172 -0.280441 -2.798624 1.016088 0.158265 0.180085 0.012194 -0.038644 -10.544304 0.437491 -0.157837 0.017292 -0.218115 -0.089907 -2.227545 -0.962723 0.486228 -0.190829 0.062188 0.028365 -53.87992 -53.157207 -51.80186 -1.548052 69.72275 3.520807 2.526134 -3.541736 6.228916 -0.141711 0.099512 0.083972 55.80956 -46.88579 46.288746 4.071686 82.1882 -7.561205 6.414604 -19.273075 18.356974
-24.177614 0.28554 -6.924078 -33.261368 76.82685 -18.667477 -1.545541 19.4432 -1.029416 8.841543 -10.876364 0.334024 -9.009096 23.162964 -17.584967 26.125341 -35.24251 -28.448734 -0.167868 0.034063 -0.13114 -0.182166 0.248486 0.112227 -0.204836 -0.217363 0.113907 52.7922 28.011456 -2.854302 -26.853622 -42.2776 88.26188 -0.203394 -3.081454 -0.746883 0.187744 0.142673 0.116671 -0.180387 0.48245 -0.21152 -0.480171 -0.22056 -0.37043 7.915299 5.650377 0.327558 0.010395 -0.242234 0.024407 3.073855 0.875109 0.225559 0.388612 -0.048544 -0.342788 10.574195 0.814336 -0.060245 -0.099848 0.153265 -0.010847 2.427394 -0.715106 -0.056064 -0.026379 0.118967 0.057962 -58.245667 55.97932 -16.842941 28.060835 -41.44296 -86.531456 1.902762 -33.801468 6.003206 0.10524 -0.24415 -0.126667 -0.192259 0.146765 -0.273402 0.026089 -0.202995 -0.122542 -7.754792 5.573154 -0.511758 -0.517512 0.187877 -0.210005 -2.837853 0.99479 0.305415 0.04752 -0.039298 -0.055601 -10.436913 0.508211 -0.211589 0.133795 -0.251286 -0.026253 -2.204411 -0.948823 0.442381 -0.246107 0.039529 0.030184 -53.761944 -52.06457 -50.5493 -1.417596 70.42959 3.426614 1.640608 -0.97251 2.545832 -0.210229 0.259925 0.132786 54.016636 -46.22895 44.609737 3.142203 81.190155 -6.739423 6.448072 -18.927528 18.72378
-24.034098 0.232118 -6.939176 -29.73218 75.28418 -15.073531 -1.471932 19.069773 -1.236402 8.859455 -10.826936 0.302925 -8.90428 22.99923 -17.470581 25.93334 -35.07556 -28.472132 -0.137579 -0.034634 -0.18141 -0.128749 0.253754 0.031351 -0.166656 -0.273352 0.140085 52.692245 27.735035 -2.6005 -26.853052 -42.229942 88.194336 -0.310704 -2.872917 -0.965698 0.120676 0.165693 0.161131 -0.11362 0.52174 -0.274711 -0.424743 -0.16954 -0.31396 7.923444 5.69018 0.264631 -0.039786 -0.254693 0.050784 3.119491 0.928206 0.268342 0.287247 0.063314 -0.286438 10.502915 0.839654 -0.07825 -0.153558 0.12421 -0.027576 2.412575 -0.825987 -0.05423 -0.07649 0.175919 0.063773 -57.398445 56.014828 -17.71949 28.08202 -41.426186 -86.04321 1.725544 -33.602894 5.69493 0.104619 -0.200562 -0.106334 -0.238835 0.060661 -0.213993 0.094549 -0.147489 -0.150807 -7.767706 5.590062 -0.549816 -0.494382 0.081713 -0.157073 -2.842405 0.945317 0.384902 -0.050184 -0.100518 -0.05914 -10.366329 0.632051 -0.227325 0.159717 -0.241911 0.004486 -2.205361 -0.904624 0.397275 -0.299975 -0.003884 0.009743 -53.285835 -50.911793 -48.48028 -1.405566 70.80491 3.488151 1.049049 1.941782 -0.346856 -0.281461 0.314 0.186996 52.1328 -45.46972 42.87675 2.512671 79.82151 -6.142517 6.377742 -18.440395 19.200403
-23.940302 0.188931 -6.969776 -26.69836 73.78911 -12.280416 -1.461605 18.833797 -1.404052 8.878153 -10.803716 0.30405 -8.861517 22.9399 -17.452742 25.816557 -35.14698 -28.48121 -0.089101 -0.05181 -0.219077 -0.054859 0.199106 -0.02415 -0.146781 -0.273472 0.145428 52.721516 27.459028 -2.195382 -27.004639 -42.33998 88.30925 -0.552927 -2.82588 -1.185967 0.042578 0.166076 0.150429 -0.086966 0.516663 -0.31811 -0.357 -0.109672 -0.236131 7.909728 5.692207 0.213658 -0.09492 -0.25913 0.058064 3.146522 0.987913 0.293756 0.169033 0.143707 -0.201701 10.437086 0.877199 -0.054658 -0.211839 0.099473 -0.041336 2.389346 -0.919581 -0.045772 -0.111639 0.210182 0.047923 -56.75723 56.179485 -18.475113 28.074833 -41.355206 -85.66167 1.535765 -32.88058 5.460312 0.119689 -0.132747 -0.066129 -0.272994 -0.019865 -0.159574 0.067831 -0.08391 -0.154474 -7.787382 5.606406 -0.573632 -0.43775 -0.045311 -0.144101 -2.845035 0.89869 0.395757 -0.09941 -0.161939 -0.058111 -10.333975 0.749307 -0.233952 0.133773 -0.215572 0.013016 -2.230142 -0.843478 0.374059 -0.352704 -0.04984 -0.032144 -52.627686 -49.803967 -46.40659 -1.447057 70.803734 3.644909 0.718056 4.842787 -2.141043 -0.323463 0.294607 0.204424 50.213596 -44.541805 41.084682 2.253051 78.401344 -5.802812 6.242708 -17.833286 19.814396
-23.897453 0.165482 -7.019404 -23.742624 72.24477 -9.558395 -1.559903 18.591213 -1.49056 8.875044 -10.783847 0.300058 -8.879483 22.943764 -17.49722 25.762947 -35.349846 -28.438595 -0.039668 -0.032267 -0.237553 0.015914 0.115536 -0.055434 -0.14997 -0.232239 0.137578 52.620693 27.20672 -1.68283 -27.228785 -42.46722 88.365486 -0.787743 -3.016252 -1.379289 -0.051246 0.156918 0.115281 -0.112038 0.478575 -0.307989 -0.287156 -0.055428 -0.160909 7.865579 5.652164 0.176628 -0.133391 -0.247391 0.061151 3.143464 1.048583 0.29464 0.068204 0.186069 -0.122544 10.375755 0.913746 -0.005833 -0.273716 0.093555 -0.050274 2.364411 -0.977224 -0.053223 -0.11864 0.21354 0.023672 -56.331985 56.343464 -18.939375 28.036022 -41.281715 -85.47242 1.397989 -32.0185 5.323702 0.137104 -0.060856 -0.029594 -0.284484 -0.069006 -0.111766 -0.004195 -0.011116 -0.142729 -7.790309 5.616703 -0.588912 -0.351441 -0.159085 -0.141305 -2.853624 0.868689 0.355119 -0.114174 -0.213097 -0.056812 -10.320084 0.832289 -0.233508 0.078672 -0.18411 -0.007409 -2.273676 -0.773381 0.369888 -0.380681 -0.099599 -0.076172 -51.898018 -48.75865 -44.772797 -1.52843 70.35572 3.80964 0.613862 7.492486 -2.681069 -0.318926 0.23415 0.183966 48.234146 -43.43504 39.23773 2.185006 77.08568 -5.586786 6.086366 -17.164799 20.603617
-23.885624 0.147026 -7.06818 -20.84512 70.54917 -6.769062 -1.74443 18.256365 -1.523386 8.853384 -10.747346 0.256405 -8.945537 22.94411 -17.538788 25.753754 -35.51838 -28.247707 -0.003027 0.005182 -0.24769 0.06872 0.021739 -0.060457 -0.160838 -0.171621 0.123113 52.237453 27.033253 -1.141549 -27.448374 -42.542843 88.270096 -0.874652 -3.395718 -1.473888 -0.148198 0.139599 0.081694 -0.168191 0.420611 -0.244063 -0.218429 -0.013318 -0.094247 7.806376 5.586838 0.162536 -0.151037 -0.219078 0.068151 3.119597 1.10572 0.270351 0.00717 0.194368 -0.069098 10.318228 0.938778 0.054776 -0.329062 0.114564 -0.066463 2.345131 -1.000179 -0.078513 -0.105247 0.184391 -0.007682 -56.146008 56.30325 -19.019796 27.963093 -41.20164 -85.4442 1.329967 -31.311731 5.269086 0.144054 0.014428 -0.013935 -0.269763 -0.093506 -0.077237 -0.086778 0.055884 -0.134885 -7.772486 5.613518 -0.597434 -0.24837 -0.234018 -0.117989 -2.861972 0.858994 0.285656 -0.115824 -0.260036 -0.059291 -10.306475 0.874954 -0.222907 0.018087 -0.153005 -0.052851 -2.330112 -0.70387 0.369583 -0.369538 -0.153547 -0.10711 -51.19147 -47.795143 -43.697346 -1.617421 69.47307 3.909166 0.668858 9.694688 -2.096361 -0.273198 0.161743 0.141846 46.18046 -42.136395 37.35465 2.084271 75.876015 -5.32183 5.946525 -16.484577 21.566305
-23.890175 0.13187 -7.116802 -18.127647 68.65615 -4.084019 -1.96404 17.844416 -1.534619 8.815454 -10.678859 0.175572 -9.043769 22.895197 -17.495684 25.764038 -35.5564 -27.859179 0.009253 0.040119 -0.255296 0.103096 -0.070532 -0.031245 -0.163546 -0.111735 0.105605 51.599087 26.995783 -0.597037 -27.608744 -42.50732 87.98628 -0.76451 -3.871924 -1.461227 -0.229455 0.110146 0.062368 -0.223473 0.353465 -0.143743 -0.158839 0.007188 -0.043451 7.760559 5.5216 0.177433 -0.14485 -0.184162 0.078968 3.09361 1.152553 0.228832 -0.007374 0.181 -0.043849 10.268079 0.952693 0.119277 -0.360549 0.156253 -0.091973 2.335514 -1.001573 -0.108213 -0.081139 0.130503 -0.044645 -56.281906 55.984547 -18.672222 27.87357 -41.12197 -85.504486 1.324096 -30.851828 5.2507 0.129647 0.105431 -0.032622 -0.235511 -0.107732 -0.064924 -0.155157 0.099631 -0.140973 -7.749086 5.599392 -0.5928 -0.147412 -0.267209 -0.070969 -2.865297 0.869619 0.205675 -0.11495 -0.314282 -0.068215 -10.28715 0.883994 -0.204392 -0.030624 -0.128383 -0.103419 -2.383096 -0.645328 0.356466 -0.325955 -0.204404 -0.121529 -50.60409 -46.97951 -43.17241 -1.673425 68.25324 3.903776 0.799347 11.276407 -0.736858 -0.202944 0.106438 0.099195 44.087334 -40.6165 35.47348 1.904091 74.69631 -4.979139 5.867743 -15.842315 22.645794
